<?xml version="1.0" standalone="no"?>
<!DOCTYPE svg PUBLIC "-//W3C//DTD SVG 20010904//EN"
 "http://www.w3.org/TR/2001/REC-SVG-20010904/DTD/svg10.dtd">
<svg version="1.0" xmlns="http://www.w3.org/2000/svg"
 width="1024.000000pt" height="1024.000000pt" viewBox="0 0 1024.000000 1024.000000"
 preserveAspectRatio="xMidYMid meet">

<g transform="translate(0.000000,1024.000000) scale(0.100000,-0.100000)"
fill="#000000" stroke="none">
<path d="M4815 9014 c-431 -30 -935 -148 -1302 -305 -365 -156 -731 -417 -978
-697 l-79 -90 -426 -5 c-467 -5 -502 -8 -672 -75 -207 -80 -391 -266 -477
-482 -35 -90 -62 -211 -60 -277 2 -41 3 -37 9 24 14 129 54 256 116 367 61
109 201 245 319 311 77 43 240 98 276 93 15 -3 26 -1 24 3 -10 16 79 20 473
26 l414 5 171 172 c430 431 897 676 1567 824 637 141 1345 132 1975 -24 603
-150 1110 -435 1523 -858 l114 -116 343 0 c474 0 602 -15 762 -90 237 -111
402 -302 473 -548 10 -37 19 -59 19 -49 1 31 -48 169 -86 237 -83 152 -226
286 -388 365 -172 83 -263 95 -750 95 l-370 0 -127 129 c-529 539 -1214 851
-2073 946 -135 15 -660 27 -790 19z"/>
<path d="M5033 8883 c43 -2 110 -2 150 0 40 1 5 3 -78 3 -82 0 -115 -2 -72 -3z"/>
<path d="M4818 8873 c17 -2 47 -2 65 0 17 2 3 4 -33 4 -36 0 -50 -2 -32 -4z"/>
<path d="M5323 8873 c20 -2 54 -2 75 0 20 2 3 4 -38 4 -41 0 -58 -2 -37 -4z"/>
<path d="M4708 8863 c12 -2 30 -2 40 0 9 3 -1 5 -23 4 -22 0 -30 -2 -17 -4z"/>
<path d="M5468 8863 c12 -2 32 -2 45 0 12 2 2 4 -23 4 -25 0 -35 -2 -22 -4z"/>
<path d="M4613 8853 c9 -2 25 -2 35 0 9 3 1 5 -18 5 -19 0 -27 -2 -17 -5z"/>
<path d="M5578 8853 c12 -2 30 -2 40 0 9 3 -1 5 -23 4 -22 0 -30 -2 -17 -4z"/>
<path d="M4533 8843 c9 -2 25 -2 35 0 9 3 1 5 -18 5 -19 0 -27 -2 -17 -5z"/>
<path d="M5663 8843 c9 -2 25 -2 35 0 9 3 1 5 -18 5 -19 0 -27 -2 -17 -5z"/>
<path d="M4473 8833 c9 -2 23 -2 30 0 6 3 -1 5 -18 5 -16 0 -22 -2 -12 -5z"/>
<path d="M5743 8833 c9 -2 25 -2 35 0 9 3 1 5 -18 5 -19 0 -27 -2 -17 -5z"/>
<path d="M4408 8823 c6 -2 18 -2 25 0 6 3 1 5 -13 5 -14 0 -19 -2 -12 -5z"/>
<path d="M5813 8823 c9 -2 23 -2 30 0 6 3 -1 5 -18 5 -16 0 -22 -2 -12 -5z"/>
<path d="M4348 8813 c6 -2 18 -2 25 0 6 3 1 5 -13 5 -14 0 -19 -2 -12 -5z"/>
<path d="M5868 8813 c6 -2 18 -2 25 0 6 3 1 5 -13 5 -14 0 -19 -2 -12 -5z"/>
<path d="M4298 8803 c6 -2 18 -2 25 0 6 3 1 5 -13 5 -14 0 -19 -2 -12 -5z"/>
<path d="M5928 8803 c7 -3 16 -2 19 1 4 3 -2 6 -13 5 -11 0 -14 -3 -6 -6z"/>
<path d="M4220 8790 c-20 -6 -21 -8 -5 -8 11 0 31 4 45 8 20 6 21 8 5 8 -11 0
-31 -4 -45 -8z"/>
<path d="M5978 8793 c6 -2 18 -2 25 0 6 3 1 5 -13 5 -14 0 -19 -2 -12 -5z"/>
<path d="M6028 8783 c7 -3 16 -2 19 1 4 3 -2 6 -13 5 -11 0 -14 -3 -6 -6z"/>
<path d="M4168 8773 c7 -3 16 -2 19 1 4 3 -2 6 -13 5 -11 0 -14 -3 -6 -6z"/>
<path d="M6068 8773 c7 -3 16 -2 19 1 4 3 -2 6 -13 5 -11 0 -14 -3 -6 -6z"/>
<path d="M4128 8763 c7 -3 16 -2 19 1 4 3 -2 6 -13 5 -11 0 -14 -3 -6 -6z"/>
<path d="M6125 8761 c11 -4 36 -11 55 -15 24 -4 29 -3 15 3 -11 4 -36 11 -55
15 -24 4 -29 3 -15 -3z"/>
<path d="M4088 8753 c7 -3 16 -2 19 1 4 3 -2 6 -13 5 -11 0 -14 -3 -6 -6z"/>
<path d="M4048 8743 c7 -3 16 -2 19 1 4 3 -2 6 -13 5 -11 0 -14 -3 -6 -6z"/>
<path d="M3985 8730 c-13 -5 -14 -9 -5 -9 8 0 24 4 35 9 13 5 14 9 5 9 -8 0
-24 -4 -35 -9z"/>
<path d="M4825 8719 c-717 -55 -1365 -293 -1840 -676 -104 -84 -304 -284 -365
-365 l-35 -47 -485 -3 c-422 -4 -493 -6 -545 -21 -214 -62 -359 -197 -421
-391 l-25 -81 0 -2041 c1 -1246 5 -2059 10 -2090 41 -209 173 -370 396 -480
169 -83 193 -87 661 -93 l411 -6 83 -78 c403 -379 1050 -677 1720 -791 320
-55 765 -74 1070 -47 885 80 1623 373 2095 832 l90 88 420 4 c393 3 425 5 505
26 306 79 518 302 560 587 6 44 10 787 10 2051 0 2141 2 2061 -53 2183 -67
151 -215 277 -382 326 -53 15 -118 18 -547 21 l-488 4 -88 102 c-166 190 -304
310 -532 462 -443 296 -953 463 -1565 515 -179 15 -524 20 -660 9z m620 -60
c683 -50 1238 -249 1730 -619 122 -92 279 -242 385 -369 l84 -101 486 1 c409
0 494 -3 544 -16 196 -52 332 -183 393 -380 17 -57 18 -146 18 -2085 0 -1909
-1 -2029 -18 -2090 -58 -211 -201 -371 -408 -453 -146 -58 -160 -60 -619 -64
l-425 -5 -105 -102 c-402 -390 -984 -651 -1718 -771 -257 -42 -363 -49 -682
-49 -409 0 -656 28 -999 114 -561 141 -1045 389 -1405 719 l-97 89 -407 5
c-459 4 -494 9 -656 86 -198 93 -319 231 -367 419 -18 73 -19 131 -19 2104 l0
2029 25 76 c61 181 201 310 390 358 49 12 143 15 545 15 l485 0 69 85 c297
369 745 666 1257 834 243 79 501 136 729 160 58 6 119 13 135 15 73 8 523 5
650 -5z"/>
<path d="M4611 8244 c0 -11 3 -14 6 -6 3 7 2 16 -1 19 -3 4 -6 -2 -5 -13z"/>
<path d="M4648 8155 c18 -31 61 -80 66 -75 2 3 -14 25 -36 50 -23 25 -36 36
-30 25z"/>
<path d="M4745 8040 c10 -11 20 -20 23 -20 3 0 -3 9 -13 20 -10 11 -20 20 -23
20 -3 0 3 -9 13 -20z"/>
<path d="M6320 7360 c-6 -11 -8 -20 -6 -20 3 0 10 9 16 20 6 11 8 20 6 20 -3
0 -10 -9 -16 -20z"/>
<path d="M6265 7265 c-39 -69 -105 -222 -104 -240 0 -5 5 1 12 15 6 14 33 72
61 130 27 58 55 117 62 133 23 49 6 28 -31 -38z"/>
<path d="M6074 7178 c8 -13 31 -81 51 -153 20 -71 41 -141 46 -155 19 -53 -3
45 -36 160 -41 142 -52 170 -65 170 -6 0 -4 -9 4 -22z"/>
<path d="M5911 7080 c15 -45 24 -54 15 -15 -4 17 -12 34 -17 40 -5 5 -4 -6 2
-25z"/>
<path d="M5952 6960 c0 -8 6 -31 13 -50 7 -19 13 -28 13 -20 0 8 -6 31 -13 50
-7 19 -13 28 -13 20z"/>
<path d="M5300 6930 c6 -11 13 -20 16 -20 2 0 0 9 -6 20 -6 11 -13 20 -16 20
-2 0 0 -9 6 -20z"/>
<path d="M5981 6854 c0 -11 3 -14 6 -6 3 7 2 16 -1 19 -3 4 -6 -2 -5 -13z"/>
<path d="M4926 6835 c5 -11 38 -56 75 -100 100 -119 193 -193 324 -258 44 -23
107 -57 140 -77 83 -50 108 -64 101 -52 -8 13 -172 110 -262 155 -100 50 -209
141 -294 244 -94 114 -93 112 -84 88z"/>
<path d="M6181 6830 c0 -8 4 -24 9 -35 5 -13 9 -14 9 -5 0 8 -4 24 -9 35 -5
13 -9 14 -9 5z"/>
<path d="M5410 6750 c6 -11 13 -20 16 -20 2 0 0 9 -6 20 -6 11 -13 20 -16 20
-2 0 0 -9 6 -20z"/>
<path d="M6011 6754 c0 -11 3 -14 6 -6 3 7 2 16 -1 19 -3 4 -6 -2 -5 -13z"/>
<path d="M6204 6750 c3 -14 17 -64 30 -113 28 -98 28 -98 -49 -113 -22 -4 -35
-9 -28 -11 13 -5 81 13 101 26 11 6 7 29 -18 117 -18 60 -34 111 -37 114 -3 3
-3 -6 1 -20z"/>
<path d="M6021 6714 c0 -11 3 -14 6 -6 3 7 2 16 -1 19 -3 4 -6 -2 -5 -13z"/>
<path d="M5472 6648 c29 -51 81 -108 99 -108 8 1 2 7 -13 15 -15 8 -43 42 -64
75 -42 69 -57 81 -22 18z"/>
<path d="M6031 6674 c0 -11 3 -14 6 -6 3 7 2 16 -1 19 -3 4 -6 -2 -5 -13z"/>
<path d="M3206 6581 c18 -16 80 -32 159 -41 44 -5 98 -12 120 -15 31 -4 35 -3
18 4 -12 5 -63 14 -115 20 -51 6 -115 17 -142 25 -27 8 -45 11 -40 7z"/>
<path d="M6061 6580 c0 -8 4 -24 9 -35 5 -13 9 -14 9 -5 0 8 -4 24 -9 35 -5
13 -9 14 -9 5z"/>
<path d="M5600 6530 c8 -5 20 -10 25 -10 6 0 3 5 -5 10 -8 5 -19 10 -25 10 -5
0 -3 -5 5 -10z"/>
<path d="M6080 6509 c0 -5 11 -9 25 -9 14 0 25 2 25 4 0 2 -11 6 -25 8 -14 3
-25 1 -25 -3z"/>
<path d="M4900 5824 c-220 -33 -365 -105 -495 -246 -117 -127 -174 -279 -175
-466 -1 -457 375 -744 875 -668 144 22 201 39 302 89 l83 41 0 206 c0 232 0
231 73 244 33 6 37 10 37 36 l0 30 -280 0 -280 0 0 -29 c0 -27 3 -29 58 -40
100 -20 97 -11 100 -234 l4 -195 -54 -18 c-38 -14 -82 -19 -159 -19 -101 0
-108 1 -181 38 -128 63 -220 188 -253 344 -22 103 -19 302 5 397 65 254 246
392 487 372 172 -14 262 -83 333 -257 l22 -56 40 7 c21 4 41 10 45 13 3 4 0
72 -7 152 l-13 146 -40 21 c-147 74 -375 114 -527 92z"/>
<path d="M1936 5793 c-1 -2 -1 -16 2 -33 4 -26 8 -30 37 -30 49 0 91 -18 104
-46 8 -18 11 -184 11 -569 0 -623 8 -573 -94 -596 -46 -10 -56 -16 -56 -33 l0
-21 422 6 c442 6 466 8 562 54 119 56 182 146 193 272 10 124 -40 234 -130
287 -53 32 -169 72 -234 82 l-48 7 60 18 c132 40 220 119 251 226 38 132 -18
259 -141 321 -88 44 -105 46 -528 51 -225 3 -410 5 -411 4z m708 -115 c53 -17
103 -68 117 -120 24 -90 -6 -213 -70 -281 -49 -54 -96 -70 -213 -75 l-108 -5
0 246 0 246 33 4 c54 8 200 -1 241 -15z m32 -602 c111 -50 164 -129 164 -244
0 -30 -5 -72 -12 -94 -16 -56 -78 -121 -140 -149 -46 -21 -68 -24 -168 -24
-63 0 -123 3 -132 7 -17 7 -18 29 -18 274 l0 266 123 -4 c107 -4 130 -8 183
-32z"/>
<path d="M7889 5568 c-95 -109 -155 -162 -216 -191 -55 -27 -59 -31 -55 -58 4
-29 5 -29 68 -29 l64 0 0 -320 c0 -354 6 -403 52 -456 53 -60 80 -69 203 -68
118 0 166 13 238 60 l37 24 -16 31 c-14 29 -19 31 -52 25 -107 -19 -136 -19
-164 3 -15 12 -32 39 -38 59 -6 21 -10 161 -10 332 l0 295 140 -3 140 -3 0 44
0 44 -140 8 -140 7 0 129 0 129 -29 0 c-22 0 -39 -13 -82 -62z"/>
<path d="M7095 5397 c-160 -42 -245 -139 -245 -278 0 -131 74 -216 238 -275
42 -15 102 -36 132 -47 31 -12 71 -36 93 -57 32 -32 37 -44 37 -82 0 -54 -29
-103 -80 -132 -27 -16 -52 -21 -105 -21 -82 1 -137 24 -182 80 -28 33 -63 122
-63 158 0 13 -9 17 -38 17 -21 0 -41 -2 -43 -5 -3 -2 1 -59 7 -126 13 -138 14
-140 100 -165 337 -98 614 22 614 266 0 48 -7 78 -24 115 -40 85 -87 118 -274
190 -154 59 -202 98 -202 164 0 88 56 136 160 136 107 0 184 -57 210 -157 10
-35 13 -38 47 -38 l36 0 -6 83 c-4 45 -7 96 -7 114 0 31 -1 32 -72 48 -98 22
-269 28 -333 12z"/>
<path d="M3573 5385 c-83 -23 -133 -53 -199 -119 -97 -98 -144 -211 -144 -353
0 -292 184 -473 481 -473 121 0 204 24 291 84 67 45 76 60 54 89 -13 17 -17
17 -68 2 -29 -9 -103 -19 -163 -22 -99 -5 -116 -3 -163 17 -98 42 -153 134
-166 278 l-6 72 300 0 300 0 0 50 c0 162 -68 283 -196 346 -67 34 -83 37 -172
40 -65 3 -114 -1 -149 -11z m204 -96 c40 -38 63 -96 63 -166 l0 -63 -171 0
-171 0 7 43 c14 87 74 183 130 208 36 16 113 4 142 -22z"/>
<path d="M5860 5370 c-233 -81 -230 -79 -230 -111 0 -29 1 -29 59 -29 35 0 63
-5 69 -13 7 -8 12 -119 14 -302 3 -287 3 -291 28 -339 33 -64 81 -102 155
-121 137 -35 290 -1 390 86 l35 31 0 -55 c0 -33 5 -59 13 -66 10 -8 61 -3 196
18 100 16 184 31 186 33 2 2 2 14 -2 26 -5 19 -12 22 -60 22 -101 0 -93 -37
-93 429 l0 408 -52 6 c-41 5 -81 -1 -192 -30 -78 -20 -142 -37 -144 -39 -2 -1
0 -13 4 -28 6 -24 10 -26 58 -26 29 0 57 -5 64 -12 9 -9 12 -93 12 -314 l0
-303 -29 -21 c-49 -34 -101 -51 -158 -51 -65 0 -109 23 -138 71 -19 33 -20 54
-23 393 -3 328 -4 357 -20 357 -9 0 -26 2 -37 5 -11 2 -58 -9 -105 -25z"/>
<path d="M3680 3882 l0 -58 -34 4 c-69 8 -126 -48 -126 -123 0 -78 56 -126
120 -104 17 6 30 15 30 20 0 5 5 9 11 9 6 0 9 -7 5 -15 -4 -11 2 -15 24 -15
l30 0 0 170 0 170 -30 0 c-30 0 -30 0 -30 -58z m-19 -102 c15 -9 19 -22 19
-64 0 -60 -14 -78 -57 -78 -34 0 -53 26 -53 73 0 29 6 42 26 58 30 24 38 25
65 11z"/>
<path d="M4945 3916 c-17 -17 -25 -36 -25 -61 0 -24 -4 -35 -15 -35 -8 0 -15
-6 -15 -14 0 -8 7 -16 15 -20 12 -4 15 -25 15 -96 0 -89 0 -90 25 -90 25 0 25
1 25 90 l0 90 28 0 c34 0 43 7 35 26 -3 8 -18 14 -34 14 -25 0 -29 4 -29 28 0
34 16 52 48 52 38 0 24 34 -15 38 -24 2 -39 -3 -58 -22z"/>
<path d="M7450 3770 l0 -170 28 0 27 0 0 170 0 170 -27 0 -28 0 0 -170z"/>
<path d="M2200 3768 c-30 -84 -56 -156 -58 -160 -2 -4 9 -8 26 -8 25 0 30 5
41 40 l12 40 55 0 c55 0 56 0 72 -40 14 -33 22 -40 46 -40 18 0 27 4 24 13
-105 291 -112 307 -138 307 -23 0 -29 -11 -80 -152z m99 25 c7 -27 15 -56 18
-65 5 -15 -1 -18 -37 -18 -36 0 -42 3 -37 18 3 9 11 38 18 65 7 26 16 47 19
47 3 0 12 -21 19 -47z"/>
<path d="M5330 3890 c0 -27 3 -30 30 -30 27 0 30 3 30 30 0 27 -3 30 -30 30
-27 0 -30 -3 -30 -30z"/>
<path d="M6060 3890 c0 -25 4 -30 25 -30 21 0 25 5 25 30 0 25 -4 30 -25 30
-21 0 -25 -5 -25 -30z"/>
<path d="M6990 3890 c0 -27 3 -30 30 -30 27 0 30 3 30 30 0 27 -3 30 -30 30
-27 0 -30 -3 -30 -30z"/>
<path d="M7665 3900 c-10 -11 -15 -26 -11 -36 6 -16 10 -15 33 8 14 14 22 31
19 37 -10 16 -20 14 -41 -9z"/>
<path d="M3018 3853 c-40 -41 -48 -63 -23 -63 12 0 15 -15 15 -76 0 -101 8
-114 70 -114 43 0 50 3 50 19 0 15 -8 21 -32 23 l-33 3 -3 73 -3 72 31 0 c23
0 30 4 30 20 0 15 -7 20 -29 20 -26 0 -30 4 -33 31 l-3 30 -37 -38z"/>
<path d="M5468 3850 c-41 -47 -46 -60 -23 -60 12 0 15 -14 15 -69 0 -112 16
-133 93 -122 41 5 37 39 -5 43 l-33 3 -3 73 -3 72 31 0 c23 0 30 4 30 20 0 15
-7 20 -29 20 -26 0 -30 4 -33 32 l-3 32 -37 -44z"/>
<path d="M2605 3818 c-28 -15 -27 -14 -20 -37 6 -19 7 -19 35 -3 34 20 63 9
68 -25 3 -17 -4 -21 -38 -26 -45 -6 -90 -40 -90 -68 0 -54 41 -77 96 -54 32
13 37 13 51 0 16 -17 24 -18 47 -9 20 8 21 30 1 38 -11 4 -15 23 -15 80 0 69
-2 76 -26 95 -29 23 -77 27 -109 9z m85 -143 c0 -32 -41 -55 -65 -35 -22 18
-19 39 8 50 41 16 57 12 57 -15z"/>
<path d="M2820 3716 l0 -116 25 0 c24 0 25 2 25 68 0 59 3 72 23 90 13 12 31
22 40 22 11 0 17 8 17 25 0 16 -6 25 -15 25 -9 0 -27 -11 -41 -25 -30 -30 -31
-31 -30 -2 1 16 -5 23 -21 25 -23 3 -23 2 -23 -112z"/>
<path d="M3224 3811 c-39 -24 -58 -70 -51 -122 7 -50 29 -76 78 -89 46 -13
112 6 117 33 3 15 -1 17 -25 10 -48 -13 -85 -7 -105 17 -10 12 -18 26 -18 31
0 5 36 9 80 9 l80 0 0 36 c0 77 -85 118 -156 75z m100 -43 c15 -25 5 -29 -55
-26 l-54 3 23 23 c27 27 69 27 86 0z"/>
<path d="M3844 3812 c-39 -25 -58 -71 -51 -123 7 -50 29 -76 78 -89 46 -13
112 6 117 33 3 15 -1 17 -25 10 -48 -13 -85 -7 -105 17 -10 12 -18 26 -18 31
0 5 37 9 81 9 l82 0 -6 41 c-3 23 -14 51 -25 61 -28 29 -90 33 -128 10z m100
-44 c15 -25 5 -29 -55 -26 l-54 3 23 23 c27 27 69 27 86 0z"/>
<path d="M4188 3815 c-85 -48 -72 -190 19 -214 38 -11 113 1 113 17 -1 24 -18
32 -44 22 -81 -30 -133 89 -60 136 20 14 32 15 59 7 30 -10 35 -9 41 9 8 26 2
30 -53 35 -31 2 -58 -2 -75 -12z"/>
<path d="M4423 3814 c-68 -34 -79 -160 -17 -201 29 -18 101 -21 133 -4 45 24
65 109 39 166 -23 51 -94 69 -155 39z m97 -44 c42 -42 15 -140 -38 -140 -10 0
-28 7 -40 16 -18 12 -22 25 -22 64 0 39 4 52 22 64 30 21 54 20 78 -4z"/>
<path d="M4640 3715 l0 -115 25 0 c25 0 25 1 25 80 0 74 2 81 25 96 21 14 31
15 50 6 24 -11 25 -16 25 -97 0 -84 0 -85 25 -85 25 0 25 0 25 94 0 90 -1 96
-26 115 -15 12 -35 21 -45 21 -26 0 -69 -21 -70 -34 0 -6 -4 -1 -9 12 -6 12
-18 22 -30 22 -19 0 -20 -6 -20 -115z"/>
<path d="M5124 3811 c-39 -24 -58 -70 -51 -122 7 -50 29 -76 78 -89 46 -13
112 6 117 33 3 15 0 18 -18 12 -45 -14 -94 -8 -112 15 -10 12 -18 26 -18 31 0
5 36 9 80 9 l80 0 0 36 c0 77 -85 118 -156 75z m100 -43 c15 -25 5 -29 -55
-26 l-54 3 23 23 c27 27 69 27 86 0z"/>
<path d="M5337 3823 c-4 -3 -7 -55 -7 -115 l0 -108 30 0 30 0 0 115 c0 114 0
115 -23 115 -13 0 -27 -3 -30 -7z"/>
<path d="M5663 3818 c-23 -11 -30 -32 -14 -42 4 -3 22 0 39 6 24 9 34 9 46 -1
25 -21 20 -51 -8 -51 -39 0 -74 -17 -91 -44 -20 -30 -12 -61 21 -82 22 -15 27
-15 64 4 22 11 40 16 40 11 0 -14 36 -28 58 -22 28 7 29 29 2 36 -18 5 -20 14
-20 80 0 70 -2 77 -26 96 -29 23 -75 26 -111 9z m87 -143 c0 -32 -41 -55 -65
-35 -8 7 -15 16 -15 21 0 16 32 39 56 39 19 0 24 -5 24 -25z"/>
<path d="M5880 3715 l0 -115 25 0 c24 0 25 2 25 66 0 78 9 98 51 113 20 7 29
16 27 27 -5 29 -26 27 -58 -4 l-30 -30 0 29 c0 22 -5 29 -20 29 -19 0 -20 -7
-20 -115z"/>
<path d="M6060 3715 l0 -115 25 0 25 0 0 115 0 115 -25 0 -25 0 0 -115z"/>
<path d="M6208 3818 c-30 -10 -32 -15 -20 -36 7 -10 15 -10 37 -2 28 11 65 5
65 -10 0 -5 3 -15 6 -24 5 -13 -1 -16 -25 -16 -96 0 -146 -100 -65 -130 26
-10 50 -5 77 18 10 9 17 11 17 4 0 -17 38 -34 60 -27 23 7 27 35 5 35 -12 0
-15 13 -15 59 0 32 -5 72 -10 88 -17 47 -70 64 -132 41z m92 -142 c0 -34 -54
-56 -78 -32 -16 16 -16 18 7 37 34 28 71 25 71 -5z"/>
<path d="M6490 3823 c0 -5 16 -56 37 -115 35 -101 39 -108 64 -108 29 0 37 15
93 163 l25 67 -23 0 c-20 0 -27 -11 -50 -74 -14 -41 -26 -79 -26 -85 0 -6 -4
-11 -8 -11 -4 0 -20 38 -36 85 -24 76 -30 85 -52 85 -13 0 -24 -3 -24 -7z"/>
<path d="M6778 3819 c-30 -11 -32 -16 -20 -37 7 -10 15 -10 36 -2 36 13 42 13
60 -6 26 -26 20 -44 -16 -44 -18 0 -48 -9 -65 -20 -27 -16 -33 -26 -33 -54 0
-18 7 -39 16 -46 22 -19 70 -16 94 5 11 10 20 13 20 7 0 -17 38 -34 60 -27 23
7 27 35 6 35 -10 0 -15 20 -18 80 -2 56 -8 84 -19 95 -20 21 -85 28 -121 14z
m92 -144 c0 -18 -7 -28 -27 -36 -34 -12 -53 -5 -53 20 0 23 25 40 58 41 17 0
22 -6 22 -25z"/>
<path d="M6990 3715 l0 -115 30 0 30 0 0 115 0 115 -30 0 -30 0 0 -115z"/>
<path d="M7238 3819 c-30 -12 -33 -16 -19 -38 8 -12 14 -13 36 -3 34 16 40 15
59 -4 26 -26 20 -44 -16 -44 -18 0 -48 -9 -65 -20 -27 -16 -33 -26 -33 -54 0
-18 7 -39 16 -46 22 -19 70 -16 94 5 11 10 20 13 20 7 0 -17 38 -34 60 -27 24
7 26 30 5 39 -11 4 -15 22 -15 75 0 85 -17 110 -75 116 -22 3 -52 0 -67 -6z
m92 -144 c0 -18 -7 -28 -27 -36 -34 -12 -53 -5 -53 20 0 23 25 40 58 41 17 0
22 -6 22 -25z"/>
<path d="M7625 3821 c-51 -22 -80 -103 -56 -163 21 -54 101 -77 173 -49 37 14
28 44 -11 34 -46 -13 -84 -7 -103 17 -10 12 -18 26 -18 31 0 5 37 9 81 9 l82
0 -6 42 c-10 71 -74 107 -142 79z m85 -50 c17 -32 12 -36 -42 -34 -54 1 -61
10 -36 40 16 20 66 16 78 -6z"/>
<path d="M7820 3715 l0 -115 25 0 c25 0 25 1 25 80 0 73 2 81 25 96 30 19 61
11 69 -19 3 -12 6 -52 6 -89 0 -66 1 -68 26 -68 25 0 25 0 23 83 -2 80 -2 82
25 95 54 27 80 -13 74 -116 l-3 -62 29 0 28 0 -4 96 c-4 86 -7 99 -27 115 -30
25 -72 24 -104 -1 l-26 -21 -21 21 c-25 25 -60 26 -93 0 -25 -20 -25 -20 -30
0 -3 12 -14 20 -26 20 -20 0 -21 -5 -21 -115z"/>
<path d="M2720 3301 l0 -60 -33 6 c-39 6 -88 -15 -111 -49 -26 -36 -21 -121 8
-154 28 -34 84 -38 116 -9 18 16 20 16 20 2 0 -11 8 -17 25 -17 l25 0 0 170 0
170 -25 0 c-24 0 -25 -3 -25 -59z m-19 -101 c30 -16 27 -113 -3 -134 -30 -21
-44 -20 -68 4 -31 31 -27 93 6 119 30 24 38 25 65 11z"/>
<path d="M6280 3301 l0 -60 -33 6 c-21 3 -46 -1 -65 -11 -86 -44 -82 -202 4
-219 30 -5 84 10 84 24 0 5 4 9 10 9 5 0 7 -7 4 -15 -5 -11 1 -15 22 -15 l29
0 -3 170 -3 170 -24 0 c-24 0 -25 -3 -25 -59z m-19 -101 c30 -16 27 -113 -3
-134 -30 -21 -44 -20 -68 4 -31 31 -27 93 6 119 30 24 38 25 65 11z"/>
<path d="M3590 3310 c0 -25 4 -30 25 -30 21 0 25 5 25 30 0 25 -4 30 -25 30
-21 0 -25 -5 -25 -30z"/>
<path d="M5070 3310 c0 -25 4 -30 25 -30 21 0 25 5 25 30 0 25 -4 30 -25 30
-21 0 -25 -5 -25 -30z"/>
<path d="M6400 3310 c0 -25 4 -30 25 -30 21 0 25 5 25 30 0 25 -4 30 -25 30
-21 0 -25 -5 -25 -30z"/>
<path d="M3938 3273 c-40 -41 -48 -63 -23 -63 12 0 15 -15 15 -78 0 -105 11
-118 93 -114 19 2 27 7 27 21 0 15 -8 21 -32 23 l-33 3 -3 73 -3 72 31 0 c23
0 30 4 30 20 0 16 -6 19 -29 16 -28 -3 -30 0 -33 31 l-3 34 -37 -38z"/>
<path d="M7036 3266 c-40 -49 -43 -56 -21 -56 12 0 15 -14 15 -70 0 -106 23
-136 95 -122 37 7 34 42 -4 42 -33 0 -41 17 -41 98 l0 52 36 0 c28 0 35 4 32
17 -2 12 -13 17 -33 18 -27 0 -30 3 -30 33 0 17 -3 32 -6 32 -4 0 -23 -20 -43
-44z"/>
<path d="M2882 3230 c-84 -52 -63 -196 32 -214 41 -8 111 14 111 34 0 8 -7 13
-15 12 -60 -14 -76 -13 -103 8 -49 38 -36 50 53 50 79 0 80 0 80 25 0 86 -83
130 -158 85z m92 -36 c31 -31 20 -44 -39 -44 -59 0 -67 8 -35 40 24 24 53 26
74 4z"/>
<path d="M3190 3135 l0 -115 25 0 c25 0 25 1 25 85 0 73 3 86 19 95 27 14 37
13 55 -6 12 -11 16 -36 16 -95 0 -78 0 -79 25 -79 25 0 25 1 25 85 0 84 0 85
28 92 62 16 72 2 72 -99 0 -76 0 -78 25 -78 25 0 25 1 25 90 0 83 -2 93 -25
115 -29 30 -59 32 -101 6 -29 -18 -31 -18 -53 0 -30 25 -62 24 -95 -2 l-26
-20 0 20 c0 14 -6 21 -20 21 -19 0 -20 -7 -20 -115z"/>
<path d="M3590 3135 l0 -115 25 0 25 0 0 115 0 115 -25 0 -25 0 0 -115z"/>
<path d="M3743 3240 c-12 -5 -26 -18 -32 -29 -26 -47 -6 -79 62 -101 30 -9 38
-16 35 -33 -4 -26 -45 -35 -79 -17 -17 10 -23 9 -30 -1 -15 -24 17 -43 72 -43
42 0 55 5 70 23 38 47 17 93 -53 115 -23 8 -33 17 -33 31 0 17 7 20 45 20 33
0 46 4 48 16 5 26 -59 37 -105 19z"/>
<path d="M4102 3148 c2 -76 7 -101 20 -115 23 -23 82 -22 108 2 18 16 20 16
20 2 0 -11 8 -17 25 -17 l25 0 0 113 0 113 -25 2 c-25 2 -25 1 -25 -83 0 -75
-2 -85 -22 -99 -54 -38 -78 -9 -78 97 0 82 0 82 -26 82 l-26 0 4 -97z"/>
<path d="M4370 3245 c-1 0 -2 -51 -3 -113 l-2 -112 28 0 27 0 0 74 c0 66 3 77
22 90 12 9 31 16 41 16 14 0 17 5 11 23 -3 12 -8 23 -9 25 -7 8 -54 -23 -63
-42 -10 -19 -11 -19 -11 9 -1 24 -6 31 -21 31 -11 0 -20 0 -20 -1z"/>
<path d="M4578 3238 c-27 -9 -37 -31 -19 -42 5 -3 23 -1 40 5 36 13 61 -1 61
-32 0 -13 -7 -19 -24 -19 -90 0 -142 -96 -70 -129 29 -13 59 -7 87 17 15 14
17 14 17 0 0 -20 25 -30 56 -22 29 7 32 30 4 37 -18 5 -20 14 -20 80 0 70 -2
77 -26 96 -29 23 -63 25 -106 9z m82 -143 c0 -36 -44 -56 -68 -31 -16 16 -16
18 7 37 34 28 61 25 61 -6z"/>
<path d="M4790 3135 l0 -115 25 0 c24 0 25 2 25 68 0 59 3 72 23 90 13 12 31
22 40 22 11 0 17 8 17 25 0 35 -25 32 -62 -7 l-30 -32 4 28 c2 24 -1 30 -19
32 -23 4 -23 2 -23 -111z"/>
<path d="M5070 3135 l0 -115 25 0 25 0 0 115 0 115 -25 0 -25 0 0 -115z"/>
<path d="M5190 3248 c-1 -2 -2 -54 -3 -116 l-2 -112 28 0 28 0 -1 73 c-1 39
-1 77 -1 83 1 18 44 32 68 23 28 -10 36 -40 31 -118 -3 -61 -3 -61 25 -61 l27
0 0 80 c0 92 -17 136 -54 146 -29 7 -64 -2 -87 -23 -14 -12 -17 -11 -22 7 -3
11 -12 20 -21 20 -9 0 -16 -1 -16 -2z"/>
<path d="M5479 3236 c-14 -9 -32 -29 -39 -46 -11 -27 -11 -37 3 -66 9 -18 14
-40 11 -48 -3 -8 -1 -24 6 -35 7 -14 7 -21 1 -21 -6 0 -17 -14 -26 -30 -15
-29 -15 -31 10 -56 24 -24 32 -26 97 -22 62 3 73 7 94 31 27 32 30 55 10 82
-10 14 -30 20 -80 23 -39 3 -70 10 -77 18 -9 12 -3 14 36 14 39 0 52 5 77 30
26 26 30 36 25 65 -4 26 -2 35 9 35 8 0 14 7 14 15 0 10 -10 15 -29 15 -15 0
-48 2 -72 5 -29 4 -53 0 -70 -9z m89 -38 c7 -7 12 -24 12 -38 0 -34 -17 -50
-52 -50 -37 0 -57 38 -40 75 13 27 58 35 80 13z m39 -205 c9 -22 -31 -53 -69
-53 -35 0 -68 16 -68 33 0 25 25 37 77 37 41 0 55 -4 60 -17z"/>
<path d="M5700 3134 l0 -114 25 0 c24 0 25 2 25 65 0 57 3 69 25 90 13 14 31
25 40 25 9 0 15 9 15 25 0 14 -5 25 -11 25 -21 0 -50 -22 -59 -43 -8 -21 -9
-21 -9 4 -1 20 -7 28 -26 31 l-25 5 0 -113z"/>
<path d="M5922 3230 c-83 -51 -64 -195 29 -214 45 -9 121 12 116 33 -2 9 -7
15 -13 14 -5 -1 -25 -4 -44 -8 -28 -5 -41 -2 -63 15 -49 38 -36 50 53 50 79 0
80 0 80 25 0 86 -83 130 -158 85z m98 -39 c18 -35 12 -41 -45 -41 -59 0 -67 8
-35 40 26 26 66 26 80 1z"/>
<path d="M6400 3135 l0 -115 25 0 25 0 0 115 0 115 -25 0 -25 0 0 -115z"/>
<path d="M6563 3234 c-60 -30 -79 -118 -38 -180 19 -30 78 -46 129 -34 44 10
58 20 48 37 -5 9 -18 9 -49 0 -34 -9 -45 -8 -66 6 -13 8 -27 25 -30 36 -5 20
-1 21 74 21 l79 0 0 30 c0 84 -68 123 -147 84z m85 -36 c7 -7 12 -20 12 -30 0
-15 -9 -18 -50 -18 -54 0 -62 10 -33 42 18 21 53 24 71 6z"/>
<path d="M6769 3241 c0 -3 -1 -54 -2 -113 l-2 -108 27 0 c26 0 26 1 27 73 0
39 0 77 0 83 1 19 50 35 71 24 25 -14 33 -44 28 -119 l-3 -61 28 0 29 0 -4 96
c-3 86 -5 98 -27 115 -30 25 -72 24 -104 -1 -24 -19 -25 -19 -30 -2 -4 17 -36
27 -38 13z"/>
<path d="M7253 3230 c-40 -24 -53 -48 -53 -100 0 -67 27 -103 86 -114 39 -8
109 14 109 34 0 9 -6 13 -15 11 -8 -3 -34 -5 -58 -5 -32 -1 -47 4 -58 18 -28
39 -19 46 66 46 89 0 92 3 69 69 -20 57 -88 77 -146 41z m91 -42 c21 -30 12
-38 -45 -38 -55 0 -66 17 -27 44 31 22 54 20 72 -6z"/>
<path d="M7492 3240 c-12 -5 -27 -21 -34 -35 -17 -38 2 -70 57 -90 37 -15 45
-22 43 -39 -4 -25 -46 -33 -79 -16 -17 10 -23 9 -30 -1 -14 -23 -11 -28 32
-39 77 -21 141 22 125 83 -4 17 -20 31 -56 46 -37 16 -50 27 -48 39 3 13 14
17 51 15 39 -1 47 2 47 17 0 27 -60 39 -108 20z"/>
<path d="M7662 3033 c-6 -27 -14 -56 -18 -66 -6 -15 -3 -18 16 -15 18 2 30 18
51 66 l28 62 -33 0 c-31 0 -33 -3 -44 -47z"/>
<path d="M5150 2600 l0 -170 25 0 25 0 0 170 0 170 -25 0 -25 0 0 -170z"/>
<path d="M5800 2730 c0 -25 4 -30 25 -30 21 0 25 5 25 30 0 25 -4 30 -25 30
-21 0 -25 -5 -25 -30z"/>
<path d="M6320 2730 c0 -26 4 -30 28 -30 23 0 27 4 28 30 1 27 -2 30 -27 30
-26 0 -29 -4 -29 -30z"/>
<path d="M5333 2659 c-84 -24 -110 -165 -40 -214 32 -22 83 -19 107 7 l20 22
0 -72 c0 -70 1 -72 25 -72 l25 0 0 164 0 165 -32 -2 c-18 -1 -42 1 -53 5 -11
3 -34 2 -52 -3z m71 -45 c12 -5 16 -20 16 -60 0 -46 -3 -56 -25 -70 -45 -29
-95 5 -95 65 0 48 57 83 104 65z"/>
<path d="M3588 2640 c-57 -45 -60 -140 -5 -186 27 -23 38 -26 83 -22 57 5 86
21 77 44 -4 10 -10 11 -23 4 -49 -26 -120 -1 -120 43 0 15 12 17 81 17 l81 0
-7 33 c-12 59 -36 82 -92 85 -38 2 -55 -2 -75 -18z m94 -22 c8 -7 18 -21 21
-30 6 -16 -1 -18 -48 -18 -61 0 -73 16 -33 44 27 19 39 20 60 4z"/>
<path d="M3900 2567 c0 -80 3 -96 20 -115 26 -28 69 -28 104 -1 l26 20 0 -20
c0 -16 6 -21 25 -21 l25 0 0 115 0 115 -25 0 c-25 0 -25 -1 -25 -78 0 -84 -14
-112 -56 -112 -36 0 -44 20 -44 107 0 82 0 83 -25 83 -25 0 -25 0 -25 -93z"/>
<path d="M4160 2545 l0 -115 25 0 c25 0 25 1 25 83 0 91 8 107 52 107 35 0 36
-4 40 -105 3 -78 4 -80 28 -80 25 0 25 1 25 83 0 90 6 102 58 102 36 0 47 -29
47 -121 0 -68 0 -69 26 -69 l26 0 -4 94 c-3 75 -8 99 -22 115 -25 27 -85 28
-118 2 -24 -19 -24 -19 -36 0 -17 27 -79 26 -109 -3 l-23 -21 0 21 c0 15 -6
22 -20 22 -19 0 -20 -7 -20 -115z"/>
<path d="M4586 2647 c-25 -18 -11 -51 15 -36 32 17 74 7 77 -18 3 -18 -3 -22
-39 -28 -75 -13 -111 -73 -69 -115 24 -24 58 -26 89 -4 22 16 24 16 33 0 5 -9
22 -16 38 -16 23 0 30 5 30 20 0 11 -7 20 -15 20 -12 0 -15 15 -15 75 0 62 -4
79 -20 95 -23 23 -96 28 -124 7z m94 -137 c0 -23 -5 -31 -25 -36 -55 -14 -75
28 -25 53 39 20 50 16 50 -17z"/>
<path d="M4923 2647 c-17 -9 -20 -16 -11 -30 7 -14 13 -15 23 -7 8 6 29 10 47
8 25 -2 34 -8 36 -25 3 -18 -3 -22 -37 -28 -54 -9 -91 -39 -91 -74 0 -54 60
-79 109 -45 22 16 24 16 33 0 5 -9 22 -16 38 -16 23 0 30 5 30 20 0 11 -7 20
-15 20 -12 0 -15 15 -15 75 0 62 -4 79 -20 95 -23 23 -91 27 -127 7z m97 -137
c0 -23 -5 -31 -25 -36 -55 -14 -75 28 -25 53 39 20 50 16 50 -17z"/>
<path d="M5540 2574 c0 -81 10 -120 34 -136 21 -14 63 -8 90 13 l26 20 0 -20
c0 -16 6 -21 25 -21 l25 0 0 115 0 115 -25 0 c-25 0 -25 -1 -25 -81 0 -87 -11
-108 -55 -109 -37 0 -45 20 -45 107 0 82 0 83 -25 83 -25 0 -25 -1 -25 -86z"/>
<path d="M5800 2545 l0 -115 25 0 25 0 0 115 0 115 -25 0 -25 0 0 -115z"/>
<path d="M5920 2545 l0 -115 25 0 c25 0 25 1 25 84 0 93 9 110 57 104 l28 -3
3 -92 c3 -91 3 -93 27 -93 25 0 25 1 25 85 0 75 2 86 20 95 12 6 33 10 48 8
27 -3 27 -3 30 -96 l3 -93 27 3 27 3 -1 93 c-2 73 -6 97 -20 113 -23 25 -83
25 -116 0 -24 -19 -24 -19 -36 0 -17 27 -79 26 -109 -3 l-23 -21 0 21 c0 15
-6 22 -20 22 -19 0 -20 -7 -20 -115z"/>
<path d="M6320 2544 l0 -115 26 3 26 3 1 113 2 112 -27 0 -28 0 0 -116z"/>
<path d="M6457 2649 c-14 -8 -15 -14 -6 -31 8 -15 14 -17 22 -9 15 15 60 14
75 -1 22 -22 13 -36 -28 -43 -53 -9 -90 -39 -90 -74 0 -53 60 -79 107 -46 18
13 22 13 33 0 7 -8 25 -15 41 -15 22 0 29 5 29 20 0 11 -7 20 -15 20 -12 0
-15 14 -15 69 0 92 -21 121 -88 121 -26 0 -55 -5 -65 -11z m103 -139 c0 -23
-5 -31 -25 -36 -34 -8 -55 1 -55 25 0 12 10 23 28 29 44 17 52 14 52 -18z"/>
<path d="M6680 2460 c0 -27 3 -30 30 -30 27 0 30 3 30 30 0 27 -3 30 -30 30
-27 0 -30 -3 -30 -30z"/>
<path d="M6258 8723 c7 -3 16 -2 19 1 4 3 -2 6 -13 5 -11 0 -14 -3 -6 -6z"/>
<path d="M3885 8700 c-27 -10 -43 -18 -35 -18 8 0 38 8 65 18 28 10 43 18 35
18 -8 0 -37 -8 -65 -18z"/>
<path d="M6399 8679 c30 -10 56 -17 58 -15 5 5 -86 36 -101 35 -6 0 13 -9 43
-20z"/>
<path d="M3772 8663 c-24 -8 -41 -17 -39 -19 4 -5 97 26 97 32 0 6 -11 4 -58
-13z"/>
<path d="M6501 8646 c8 -8 133 -56 136 -52 2 2 -26 15 -62 30 -62 25 -84 31
-74 22z"/>
<path d="M3665 8621 c-22 -11 -35 -19 -30 -19 14 -1 93 36 80 37 -5 0 -28 -8
-50 -18z"/>
<path d="M3580 8585 c-14 -8 -20 -14 -15 -14 6 0 21 6 35 14 14 8 21 14 15 14
-5 0 -21 -6 -35 -14z"/>
<path d="M6690 8565 c25 -13 50 -24 55 -24 6 0 -10 11 -35 24 -25 13 -49 24
-55 24 -5 0 10 -11 35 -24z"/>
<path d="M3401 8500 c-74 -38 -139 -74 -145 -80 -9 -9 279 135 293 147 21 16
-36 -9 -148 -67z"/>
<path d="M6780 8525 c0 -2 32 -21 70 -40 39 -19 70 -33 70 -30 0 2 -31 21 -70
40 -38 19 -70 33 -70 30z"/>
<path d="M6950 8436 c0 -3 9 -10 20 -16 11 -6 20 -8 20 -6 0 3 -9 10 -20 16
-11 6 -20 8 -20 6z"/>
<path d="M3127 8340 c-59 -38 -107 -72 -107 -74 0 -5 195 118 215 136 25 22
-11 2 -108 -62z"/>
<path d="M7000 8406 c0 -3 9 -10 20 -16 11 -6 20 -8 20 -6 0 3 -9 10 -20 16
-11 6 -20 8 -20 6z"/>
<path d="M7070 8363 c76 -56 230 -161 225 -153 -7 11 -173 127 -220 154 -30
17 -30 17 -5 -1z"/>
<path d="M2920 8193 c-99 -79 -283 -256 -355 -342 l-50 -60 -425 -3 -425 -3
425 -3 426 -2 58 70 c72 86 237 245 336 324 87 69 106 86 99 86 -2 0 -43 -30
-89 -67z"/>
<path d="M7310 8197 c0 -2 35 -33 77 -68 43 -35 134 -120 203 -189 103 -104
111 -110 46 -38 -84 95 -326 313 -326 295z"/>
<path d="M7719 7798 c12 -17 44 -18 450 -16 l436 3 -434 2 c-327 3 -438 6
-450 16 -14 11 -14 10 -2 -5z"/>
<path d="M1613 7773 c9 -2 23 -2 30 0 6 3 -1 5 -18 5 -16 0 -22 -2 -12 -5z"/>
<path d="M8623 7773 c9 -2 23 -2 30 0 6 3 -1 5 -18 5 -16 0 -22 -2 -12 -5z"/>
<path d="M1558 7763 c7 -3 16 -2 19 1 4 3 -2 6 -13 5 -11 0 -14 -3 -6 -6z"/>
<path d="M8678 7763 c6 -2 18 -2 25 0 6 3 1 5 -13 5 -14 0 -19 -2 -12 -5z"/>
<path d="M1455 7741 c-166 -59 -312 -176 -399 -320 -20 -32 -36 -63 -36 -67 0
-5 18 21 40 57 94 157 233 266 415 325 39 13 61 23 50 23 -11 0 -43 -8 -70
-18z"/>
<path d="M8750 7745 c46 -18 64 -17 25 0 -16 8 -37 14 -45 14 -8 0 1 -7 20
-14z"/>
<path d="M8830 7715 c14 -8 30 -14 35 -14 6 0 -1 6 -15 14 -14 8 -29 14 -35
14 -5 0 1 -6 15 -14z"/>
<path d="M8894 7688 c10 -7 45 -30 77 -51 136 -89 256 -265 296 -434 17 -74
18 -176 18 -2123 l0 -2045 -22 -86 c-39 -155 -101 -267 -207 -377 -136 -142
-313 -235 -532 -278 -59 -12 -173 -17 -454 -21 l-375 -5 -62 -58 c-290 -272
-704 -509 -1121 -644 -272 -87 -534 -147 -819 -188 -143 -20 -197 -23 -568
-23 -374 0 -425 2 -580 23 -489 67 -883 188 -1296 398 -238 121 -451 264 -644
433 l-70 61 -295 0 c-419 0 -553 18 -741 99 -308 133 -503 380 -538 681 -7 67
-9 69 -10 25 -3 -123 65 -301 164 -430 61 -80 93 -111 180 -175 33 -24 63 -48
66 -53 3 -5 10 -9 15 -9 5 0 45 -17 89 -38 187 -90 322 -110 743 -110 239 0
322 -3 322 -12 0 -6 3 -9 6 -5 3 3 43 -26 87 -65 183 -159 420 -317 629 -419
37 -18 64 -37 61 -42 -3 -6 -1 -7 5 -3 6 4 33 -4 59 -17 152 -77 469 -186 716
-248 337 -83 598 -112 1022 -112 318 -1 443 7 680 44 765 120 1395 400 1851
822 l60 55 384 5 c309 4 399 8 455 21 102 24 191 54 267 91 36 18 69 31 72 27
3 -3 6 -1 6 5 0 5 24 26 53 46 185 128 318 353 347 589 8 67 10 649 8 2103 -3
2267 5 2042 -85 2225 -39 81 -60 109 -137 185 -56 55 -112 101 -146 118 -30
15 -46 22 -36 15z"/>
<path d="M996 7299 c-47 -116 -49 -140 -53 -649 -3 -267 -2 -483 0 -480 3 3 7
196 8 430 3 478 8 559 43 662 27 80 28 102 2 37z"/>
<path d="M9402 7175 c0 -16 2 -22 5 -12 2 9 2 23 0 30 -3 6 -5 -1 -5 -18z"/>
<path d="M9415 5090 c0 -1130 1 -1593 2 -1027 2 565 2 1489 0 2055 -1 565 -2
102 -2 -1028z"/>
<path d="M813 5085 c0 -1072 2 -1979 6 -2015 6 -60 4 3366 -2 3780 -1 102 -3
-692 -4 -1765z"/>
<path d="M940 6015 c0 -82 2 -146 5 -144 6 7 8 279 1 286 -3 4 -6 -60 -6 -142z"/>
<path d="M940 4705 c0 -626 3 -1136 6 -1133 8 8 9 2256 1 2264 -4 4 -7 -505
-7 -1131z"/>
<path d="M940 3343 c0 -119 2 -214 5 -211 8 8 11 428 3 428 -5 0 -8 -98 -8
-217z"/>
<path d="M9402 2995 c0 -16 2 -22 5 -12 2 9 2 23 0 30 -3 6 -5 -1 -5 -18z"/>
<path d="M832 2975 c0 -16 2 -22 5 -12 2 9 2 23 0 30 -3 6 -5 -1 -5 -18z"/>
<path d="M9391 2945 c-1 -11 -4 -31 -6 -45 l-6 -25 11 25 c6 13 9 33 7 45 -4
19 -4 19 -6 0z"/>
<path d="M842 2925 c0 -11 3 -29 8 -40 11 -25 11 1 0 35 -6 20 -8 21 -8 5z"/>
<path d="M9362 2833 c-15 -48 -8 -55 8 -8 7 20 10 38 8 41 -3 2 -10 -13 -16
-33z"/>
<path d="M866 2840 c25 -108 159 -310 265 -399 l64 -55 -76 75 c-91 89 -157
180 -202 280 -19 41 -39 85 -46 99 l-11 25 6 -25z"/>
<path d="M9312 2715 c-17 -36 -30 -65 -27 -65 7 0 67 121 63 126 -2 2 -18 -26
-36 -61z"/>
<path d="M9245 2598 c-16 -24 -62 -79 -104 -124 -62 -66 -60 -64 14 11 50 50
98 106 108 123 26 46 14 39 -18 -10z"/>
<path d="M1224 2366 c27 -22 118 -77 105 -63 -3 4 -34 25 -70 47 -35 22 -51
30 -35 16z"/>
<path d="M9005 2359 c-52 -40 -57 -46 -17 -23 29 16 73 55 61 53 -2 0 -22 -14
-44 -30z"/>
<path d="M8918 2304 c-38 -20 -36 -28 2 -9 17 9 30 18 30 20 0 7 -1 6 -32 -11z"/>
<path d="M1340 2295 c0 -7 61 -37 66 -33 2 3 -12 12 -31 21 -19 9 -35 15 -35
12z"/>
<path d="M8820 2255 c-14 -8 -20 -14 -15 -14 6 0 21 6 35 14 14 8 21 14 15 14
-5 0 -21 -6 -35 -14z"/>
<path d="M1450 2240 c8 -5 20 -10 25 -10 6 0 3 5 -5 10 -8 5 -19 10 -25 10 -5
0 -3 -5 5 -10z"/>
<path d="M8760 2230 c-8 -5 -10 -10 -5 -10 6 0 17 5 25 10 8 5 11 10 5 10 -5
0 -17 -5 -25 -10z"/>
<path d="M1516 2215 c17 -7 44 -16 60 -20 25 -4 24 -3 -6 8 -19 8 -46 17 -60
20 -19 5 -17 3 6 -8z"/>
<path d="M8658 2193 c7 -3 16 -2 19 1 4 3 -2 6 -13 5 -11 0 -14 -3 -6 -6z"/>
<path d="M1618 2183 c7 -3 16 -2 19 1 4 3 -2 6 -13 5 -11 0 -14 -3 -6 -6z"/>
<path d="M8618 2183 c7 -3 16 -2 19 1 4 3 -2 6 -13 5 -11 0 -14 -3 -6 -6z"/>
<path d="M1658 2173 c7 -3 16 -2 19 1 4 3 -2 6 -13 5 -11 0 -14 -3 -6 -6z"/>
<path d="M8568 2173 c6 -2 18 -2 25 0 6 3 1 5 -13 5 -14 0 -19 -2 -12 -5z"/>
<path d="M1708 2163 c6 -2 18 -2 25 0 6 3 1 5 -13 5 -14 0 -19 -2 -12 -5z"/>
<path d="M8518 2163 c6 -2 18 -2 25 0 6 3 1 5 -13 5 -14 0 -19 -2 -12 -5z"/>
<path d="M1773 2153 c9 -2 23 -2 30 0 6 3 -1 5 -18 5 -16 0 -22 -2 -12 -5z"/>
<path d="M8443 2153 c9 -2 25 -2 35 0 9 3 1 5 -18 5 -19 0 -27 -2 -17 -5z"/>
<path d="M2155 2143 c314 -3 319 -4 345 -26 l25 -22 -24 28 -24 27 -321 -2
-321 -3 320 -2z"/>
<path d="M7740 2135 c-7 -8 -56 -50 -109 -94 -110 -91 -144 -120 -121 -106 24
15 109 84 181 147 l66 58 334 3 334 2 -336 3 c-287 2 -338 0 -349 -13z"/>
<path d="M2550 2075 c13 -14 26 -25 28 -25 3 0 -5 11 -18 25 -13 14 -26 25
-28 25 -3 0 5 -11 18 -25z"/>
<path d="M2593 2043 c9 -14 87 -77 87 -70 0 3 -21 22 -47 43 -26 21 -44 33
-40 27z"/>
<path d="M2690 1966 c0 -2 8 -10 18 -17 15 -13 16 -12 3 4 -13 16 -21 21 -21
13z"/>
<path d="M2730 1936 c0 -2 14 -14 30 -26 17 -12 30 -19 30 -16 0 2 -13 14 -30
26 -16 12 -30 19 -30 16z"/>
<path d="M7392 1861 c-79 -56 -114 -84 -82 -66 28 16 170 117 170 121 0 7 -2
6 -88 -55z"/>
<path d="M2822 1868 c30 -26 88 -62 88 -55 0 2 -26 21 -57 41 -32 20 -46 27
-31 14z"/>
<path d="M2950 1786 c0 -3 9 -10 20 -16 11 -6 20 -8 20 -6 0 3 -9 10 -20 16
-11 6 -20 8 -20 6z"/>
<path d="M7264 1774 c-18 -14 -18 -15 4 -4 12 6 22 13 22 15 0 8 -5 6 -26 -11z"/>
<path d="M3000 1756 c0 -3 14 -12 30 -21 17 -9 30 -13 30 -11 0 3 -13 12 -30
21 -16 9 -30 13 -30 11z"/>
<path d="M7187 1731 c-60 -36 -74 -50 -22 -23 39 20 85 52 75 51 -3 0 -26 -13
-53 -28z"/>
<path d="M3070 1715 c0 -2 18 -14 40 -25 22 -11 40 -18 40 -15 0 2 -18 14 -40
25 -22 11 -40 18 -40 15z"/>
<path d="M6990 1625 c-58 -30 -102 -54 -97 -54 10 -1 207 98 207 104 0 7 6 10
-110 -50z"/>
<path d="M3220 1636 c0 -2 7 -7 16 -10 8 -3 12 -2 9 4 -6 10 -25 14 -25 6z"/>
<path d="M3310 1590 c19 -11 40 -19 45 -19 6 0 -6 8 -25 19 -19 11 -39 19 -45
19 -5 0 6 -8 25 -19z"/>
<path d="M3400 1550 c8 -5 20 -10 25 -10 6 0 3 5 -5 10 -8 5 -19 10 -25 10 -5
0 -3 -5 5 -10z"/>
<path d="M6830 1550 c-8 -5 -10 -10 -5 -10 6 0 17 5 25 10 8 5 11 10 5 10 -5
0 -17 -5 -25 -10z"/>
<path d="M3470 1520 c8 -5 20 -10 25 -10 6 0 3 5 -5 10 -8 5 -19 10 -25 10 -5
0 -3 -5 5 -10z"/>
<path d="M6745 1515 c-25 -12 -26 -14 -5 -9 28 7 60 23 45 23 -5 0 -23 -6 -40
-14z"/>
<path d="M3520 1502 c8 -5 26 -13 40 -16 17 -5 20 -4 10 2 -8 5 -26 13 -40 16
-17 5 -20 4 -10 -2z"/>
<path d="M6680 1490 c-8 -5 -10 -10 -5 -10 6 0 17 5 25 10 8 5 11 10 5 10 -5
0 -17 -5 -25 -10z"/>
<path d="M3768 1413 c7 -3 16 -2 19 1 4 3 -2 6 -13 5 -11 0 -14 -3 -6 -6z"/>
<path d="M6428 1403 c7 -3 16 -2 19 1 4 3 -2 6 -13 5 -11 0 -14 -3 -6 -6z"/>
<path d="M3868 1383 c7 -3 16 -2 19 1 4 3 -2 6 -13 5 -11 0 -14 -3 -6 -6z"/>
<path d="M6358 1383 c7 -3 16 -2 19 1 4 3 -2 6 -13 5 -11 0 -14 -3 -6 -6z"/>
<path d="M6318 1373 c7 -3 16 -2 19 1 4 3 -2 6 -13 5 -11 0 -14 -3 -6 -6z"/>
<path d="M3938 1363 c7 -3 16 -2 19 1 4 3 -2 6 -13 5 -11 0 -14 -3 -6 -6z"/>
<path d="M3978 1353 c7 -3 16 -2 19 1 4 3 -2 6 -13 5 -11 0 -14 -3 -6 -6z"/>
<path d="M6248 1353 c7 -3 16 -2 19 1 4 3 -2 6 -13 5 -11 0 -14 -3 -6 -6z"/>
<path d="M4018 1343 c7 -3 16 -2 19 1 4 3 -2 6 -13 5 -11 0 -14 -3 -6 -6z"/>
<path d="M6208 1343 c7 -3 16 -2 19 1 4 3 -2 6 -13 5 -11 0 -14 -3 -6 -6z"/>
<path d="M4058 1333 c7 -3 16 -2 19 1 4 3 -2 6 -13 5 -11 0 -14 -3 -6 -6z"/>
<path d="M6168 1333 c7 -3 16 -2 19 1 4 3 -2 6 -13 5 -11 0 -14 -3 -6 -6z"/>
<path d="M4098 1323 c7 -3 16 -2 19 1 4 3 -2 6 -13 5 -11 0 -14 -3 -6 -6z"/>
<path d="M6118 1323 c6 -2 18 -2 25 0 6 3 1 5 -13 5 -14 0 -19 -2 -12 -5z"/>
<path d="M4138 1313 c6 -2 18 -2 25 0 6 3 1 5 -13 5 -14 0 -19 -2 -12 -5z"/>
<path d="M6068 1313 c6 -2 18 -2 25 0 6 3 1 5 -13 5 -14 0 -19 -2 -12 -5z"/>
<path d="M4188 1303 c6 -2 18 -2 25 0 6 3 1 5 -13 5 -14 0 -19 -2 -12 -5z"/>
<path d="M6018 1303 c6 -2 18 -2 25 0 6 3 1 5 -13 5 -14 0 -19 -2 -12 -5z"/>
<path d="M4238 1293 c6 -2 18 -2 25 0 6 3 1 5 -13 5 -14 0 -19 -2 -12 -5z"/>
<path d="M5968 1293 c6 -2 18 -2 25 0 6 3 1 5 -13 5 -14 0 -19 -2 -12 -5z"/>
<path d="M4293 1283 c9 -2 23 -2 30 0 6 3 -1 5 -18 5 -16 0 -22 -2 -12 -5z"/>
<path d="M5918 1283 c6 -2 18 -2 25 0 6 3 1 5 -13 5 -14 0 -19 -2 -12 -5z"/>
<path d="M4353 1273 c9 -2 23 -2 30 0 6 3 -1 5 -18 5 -16 0 -22 -2 -12 -5z"/>
<path d="M5863 1273 c9 -2 23 -2 30 0 6 3 -1 5 -18 5 -16 0 -22 -2 -12 -5z"/>
<path d="M4423 1263 c9 -2 23 -2 30 0 6 3 -1 5 -18 5 -16 0 -22 -2 -12 -5z"/>
<path d="M5803 1263 c9 -2 23 -2 30 0 6 3 -1 5 -18 5 -16 0 -22 -2 -12 -5z"/>
<path d="M4483 1253 c9 -2 25 -2 35 0 9 3 1 5 -18 5 -19 0 -27 -2 -17 -5z"/>
<path d="M5723 1253 c9 -2 25 -2 35 0 9 3 1 5 -18 5 -19 0 -27 -2 -17 -5z"/>
<path d="M4563 1243 c9 -2 25 -2 35 0 9 3 1 5 -18 5 -19 0 -27 -2 -17 -5z"/>
<path d="M5638 1243 c12 -2 30 -2 40 0 9 3 -1 5 -23 4 -22 0 -30 -2 -17 -4z"/>
<path d="M4668 1233 c12 -2 32 -2 45 0 12 2 2 4 -23 4 -25 0 -35 -2 -22 -4z"/>
<path d="M5528 1233 c12 -2 32 -2 45 0 12 2 2 4 -23 4 -25 0 -35 -2 -22 -4z"/>
<path d="M4787 1223 c18 -2 50 -2 70 0 21 2 7 4 -32 4 -38 0 -55 -2 -38 -4z"/>
<path d="M5363 1223 c20 -2 54 -2 75 0 20 2 3 4 -38 4 -41 0 -58 -2 -37 -4z"/>
<path d="M5038 1213 c34 -2 88 -2 120 0 31 2 3 3 -63 3 -66 0 -92 -1 -57 -3z"/>
</g>
</svg>
